<svg xmlns="http://www.w3.org/2000/svg" version="1.1" xmlns:xlink="http://www.w3.org/1999/xlink" xmlns:svgjs="http://svgjs.dev/svgjs" width="1000" height="396" viewBox="0 0 1000 396"><g transform="matrix(1,0,0,1,-0.6060593892066777,-0.17897208417241472)"><svg viewBox="0 0 396 157" data-background-color="#ffffff" preserveAspectRatio="xMidYMid meet" height="396" width="1000" xmlns="http://www.w3.org/2000/svg" xmlns:xlink="http://www.w3.org/1999/xlink"><g id="tight-bounds" transform="matrix(1,0,0,1,0.23999951812584186,0.07095610407846209)"><svg viewBox="0 0 395.52 156.85806333878313" height="156.85806333878313" width="395.52"><g><svg viewBox="0 0 672.1062244704635 266.5485455308919" height="156.85806333878313" width="395.52"><g transform="matrix(1,0,0,1,276.58622447046355,65.1714913084923)"><svg viewBox="0 0 395.52 136.20556291390727" height="136.20556291390727" width="395.52"><g id="textblocktransform"><svg viewBox="0 0 395.52 136.20556291390727" height="136.20556291390727" width="395.52" id="textblock"><g><svg viewBox="0 0 395.52 136.20556291390727" height="136.20556291390727" width="395.52"><g transform="matrix(1,0,0,1,0,0)"><svg width="395.52" viewBox="1.9500000476837158 -35.900001525878906 135.88999938964844 46.80000305175781" height="136.20556291390727" data-palette-color="#0718c4"><path d="M39.55 10.9L37.6 10.9Q35.45 10.9 34.1 10.75 32.75 10.6 31.63 10.03 30.5 9.45 29.05 8.15L29.05 8.15Q26.9 6.2 25.38 4.55 23.85 2.9 22.43 1.85 21 0.8 19.05 0.8L19.05 0.8Q14.45 0.75 11.18-0.88 7.9-2.5 5.88-5.15 3.85-7.8 2.9-11.05 1.95-14.3 1.95-17.5L1.95-17.5Q1.95-20.65 3.03-23.88 4.1-27.1 6.28-29.8 8.45-32.5 11.75-34.15 15.05-35.8 19.45-35.8L19.45-35.8Q24.05-35.8 27.35-34.15 30.65-32.5 32.77-29.78 34.9-27.05 35.93-23.85 36.95-20.65 36.95-17.5L36.95-17.5Q36.95-14.9 36.23-12.25 35.5-9.6 34-7.18 32.5-4.75 30.25-2.9 28-1.05 25-0.05L25-0.05Q26.4-0.05 27.5 0.15 28.6 0.35 29.73 0.98 30.85 1.6 32.2 2.9L32.2 2.9Q33.95 4.5 35.02 5.53 36.1 6.55 36.83 7.13 37.55 7.7 38.18 7.9 38.8 8.1 39.55 8.1L39.55 8.1 39.55 10.9ZM19.85-2.3L19.85-2.3Q22.65-2.3 24.58-3.6 26.5-4.9 27.7-7 28.9-9.1 29.48-11.63 30.05-14.15 30.05-16.6L30.05-16.6Q30.05-19.95 29.38-22.88 28.7-25.8 27.33-28 25.95-30.2 23.85-31.48 21.75-32.75 19-32.7L19-32.7Q16.2-32.65 14.28-31.33 12.35-30 11.15-27.88 9.95-25.75 9.4-23.2 8.85-20.65 8.85-18.2L8.85-18.2Q8.85-15.7 9.45-12.95 10.05-10.2 11.35-7.75 12.65-5.3 14.75-3.8 16.85-2.3 19.85-2.3ZM70.15-23.95L67.3-23.95Q67.3-26.75 66.6-28.58 65.9-30.4 64.52-31.3 63.15-32.2 61.05-32.15L61.05-32.15 58-32.15 58-7.45Q58-6.1 57.95-4.95 57.9-3.8 57.8-3.15L57.8-3.15Q58.75-3.2 59.97-3.25 61.2-3.3 61.85-3.3L61.85-3.3 61.85 0 48.2 0 48.2-2.75Q49.6-2.8 50.35-3.25 51.1-3.7 51.4-4.75 51.7-5.8 51.7-7.7L51.7-7.7 51.75-32.1 48.5-32.1Q45.55-32.05 44-30.1 42.45-28.15 42.45-23.95L42.45-23.95 39.65-23.95 39.9-35 69.85-35 70.15-23.95ZM79.24 0L68.99 0 68.99-2.85Q70.39-2.85 71.24-3.65 72.09-4.45 72.64-5.78 73.19-7.1 73.79-8.75L73.79-8.75 83.74-35.9 86.44-35.9 97.29-8.25Q97.59-7.4 98.09-5.85 98.59-4.3 98.64-3.15L98.64-3.15Q99.49-3.2 100.29-3.25 101.09-3.3 101.69-3.3L101.69-3.3 101.69 0 88.94 0 88.94-2.75Q90.49-2.75 91.04-3.4 91.59-4.05 91.52-5.1 91.44-6.15 90.99-7.25L90.99-7.25 89.74-10.65 78.14-10.45 77.04-7.1Q76.74-6.25 76.34-5.18 75.94-4.1 75.54-3.25L75.54-3.25Q76.44-3.3 77.52-3.35 78.59-3.4 79.24-3.4L79.24-3.4 79.24 0ZM81.94-21.35L79.24-13.65 88.64-13.65 85.94-21Q85.34-22.7 84.82-24.43 84.29-26.15 83.94-27.6L83.94-27.6 83.84-27.6Q83.54-26.6 83.12-25 82.69-23.4 81.94-21.35L81.94-21.35ZM120.34 0.8L120.34 0.8Q115.59 0.8 112.24-0.8 108.89-2.4 106.82-5.08 104.74-7.75 103.79-11 102.84-14.25 102.84-17.5L102.84-17.5Q102.84-20.65 103.89-23.88 104.94-27.1 107.12-29.8 109.29-32.5 112.59-34.15 115.89-35.8 120.34-35.8L120.34-35.8Q124.89-35.8 128.22-34.15 131.54-32.5 133.67-29.78 135.79-27.05 136.82-23.85 137.84-20.65 137.84-17.5L137.84-17.5Q137.84-14.4 136.79-11.2 135.74-8 133.57-5.28 131.39-2.55 128.09-0.88 124.79 0.8 120.34 0.8ZM120.74-2.3L120.74-2.3Q123.54-2.3 125.47-3.6 127.39-4.9 128.59-7 129.79-9.1 130.37-11.63 130.94-14.15 130.94-16.6L130.94-16.6Q130.94-19.95 130.24-22.88 129.54-25.8 128.17-28 126.79-30.2 124.69-31.48 122.59-32.75 119.84-32.7L119.84-32.7Q117.09-32.65 115.17-31.33 113.24-30 112.02-27.88 110.79-25.75 110.24-23.2 109.69-20.65 109.69-18.2L109.69-18.2Q109.69-15.7 110.29-12.95 110.89-10.2 112.19-7.75 113.49-5.3 115.62-3.8 117.74-2.3 120.74-2.3Z" opacity="1" transform="matrix(1,0,0,1,0,0)" fill="#0718c4" class="wordmark-text-0" data-fill-palette-color="primary" id="text-0"></path></svg></g></svg></g></svg></g></svg></g><g><svg viewBox="0 0 244.43135999999998 266.5485455308919" height="266.5485455308919" width="244.43135999999998"><g><svg xmlns="http://www.w3.org/2000/svg" xmlns:xlink="http://www.w3.org/1999/xlink" version="1.1" x="0" y="0" viewBox="8.799999237060547 5.041510581970215 82.40000915527344 89.85591125488281" style="enable-background:new 0 0 100 100;" xml:space="preserve" height="266.5485455308919" width="244.43135999999998" class="icon-icon-0" data-fill-palette-color="accent" id="icon-0"><path d="M42.9 17.8c-1.4-5.4 1.9-11 7.3-12.4 0.6-0.2 1.3-0.3 1.9-0.3l0.8 0 0 0c4-0.2 8 0.1 11.9 1.1 3.6 0.9 7.2 2.5 10.6 4.7 3.3 2.2 6.2 4.8 8.4 7.6 2.3 3 4.2 6.2 5.4 9.7 0.3 0.9 0.6 1.8 0.9 2.7 0.2 0.9 0.4 1.8 0.6 2.7l0.1 0.6 0.4 3.4c0 0.3 0 0.6 0 0.9l0 1.8c0 0.4 0 0.8 0 1.2-0.1 0.9-0.2 1.8-0.2 2.7-0.3 2-0.6 3.6-1.2 5.2-1.1 3.5-2.6 6.6-4.6 9.3-2 2.8-4.4 5.2-7.1 7.2-0.2 0.2-0.5 0.3-0.7 0.5-0.5 0.3-1 0.7-1.4 0.9l-2.3 1.3c-1.6 0.7-3.1 1.4-4.6 1.8-3.3 1-6.6 1.5-9.6 1.4-3.2-0.1-6.4-0.7-9.3-1.7-2.9-1.1-5.6-2.6-8-4.5l-1.1-0.9c-0.2-0.2-0.4-0.3-0.6-0.5l-1.6-1.6-1.5-1.8c-0.2-0.2-0.3-0.5-0.6-0.8l-0.6-1c-0.5-0.8-1-1.6-1.4-2.4 0.6 0.7 1.2 1.4 1.8 2.1l0.7 0.7c0.2 0.3 0.6 0.6 0.9 0.8l1.5 1.3 1.8 1.2c0.3 0.2 0.6 0.4 0.9 0.6l1.1 0.6c2.5 1.3 5.1 2.2 7.9 2.8 2.6 0.4 5.4 0.4 8 0 2.4-0.3 5-1.2 7.5-2.4 1.1-0.5 2-1.1 2.9-1.7l1.9-1.5c0.3-0.3 0.6-0.6 0.9-0.8 0.1-0.1 0.3-0.3 0.4-0.4l0.1-0.1c1.7-1.8 3.1-3.8 4.2-6.1 1-2.1 1.6-4.4 1.9-6.8 0.2-1 0.2-2 0.1-2.8l0-0.6 0-0.3c-0.1-0.5-0.1-1-0.1-1.4 0-0.4-0.1-0.8-0.2-1.1l-0.2-1c0-0.2-0.1-0.3-0.1-0.5L78 37.7l-0.4-1c-0.2-0.4-0.4-0.9-0.6-1.3L77 35.1c-0.2-0.4-0.5-0.8-0.7-1.2l-0.1-0.1c-1.1-1.8-2.5-3.5-4.1-4.9-1.5-1.3-3.2-2.4-5.4-3.2-2.1-0.8-4-1.2-5.8-1.3-1.8-0.1-3.7 0.1-5.6 0.6C49.9 26.5 44.4 23.3 42.9 17.8zM33.2 74.3c-2.1-0.9-3.9-1.9-5.4-3.2-1.6-1.4-3-3-4.1-4.9l-0.1-0.1c-0.2-0.4-0.4-0.8-0.7-1.2l-0.1-0.3c-0.2-0.4-0.4-0.9-0.6-1.3l-0.4-1-0.5-1.6c0-0.2-0.1-0.3-0.1-0.5l-0.2-1c-0.1-0.3-0.1-0.6-0.2-1.1 0-0.5-0.1-1-0.1-1.4l0-0.3 0-0.6c0-0.9 0-1.8 0.1-2.8 0.3-2.4 0.9-4.7 1.9-6.8 1.1-2.2 2.5-4.3 4.2-6.1l0.1-0.1c0.1-0.1 0.3-0.3 0.4-0.4 0.3-0.3 0.6-0.6 0.9-0.8l1.9-1.5c0.9-0.6 1.8-1.2 2.9-1.7 2.5-1.3 5-2.1 7.5-2.4 2.7-0.4 5.4-0.4 8 0 2.8 0.5 5.4 1.4 7.9 2.8l1 0.6c0.3 0.1 0.6 0.3 0.9 0.6l1.7 1.2 1.5 1.3c0.3 0.3 0.6 0.6 0.9 0.8l0.7 0.7c0.6 0.7 1.2 1.4 1.8 2.1-0.4-0.8-0.9-1.6-1.4-2.4l-0.6-1c-0.2-0.3-0.4-0.6-0.5-0.8l-1.5-1.8-1.6-1.6c-0.2-0.2-0.4-0.4-0.6-0.5l-1.1-0.9c-2.4-1.9-5.1-3.4-8-4.5-2.9-1-6-1.6-9.3-1.7-3-0.1-6.2 0.3-9.6 1.4-1.5 0.4-3 1.1-4.6 1.8L24 32.5c-0.4 0.2-0.9 0.6-1.4 0.9-0.2 0.2-0.5 0.3-0.7 0.5-2.7 2-5.1 4.4-7.1 7.2-2 2.7-3.5 5.9-4.6 9.3-0.5 1.6-0.8 3.2-1.2 5.2-0.1 0.9-0.2 1.8-0.2 2.7 0 0.4 0 0.8 0 1.2l0 1.9c0 0.3 0 0.6 0 0.9l0.4 3.4 0.1 0.6c0.2 0.9 0.4 1.8 0.6 2.7 0.3 0.9 0.6 1.8 0.9 2.7 1.3 3.5 3.1 6.7 5.4 9.7 2.2 2.9 5.1 5.4 8.4 7.6 3.4 2.2 7 3.8 10.6 4.7 3.8 1 7.8 1.4 11.9 1.1l0 0 0.8 0c0.6 0 1.3-0.1 1.9-0.3 2.6-0.7 4.8-2.4 6.2-4.7 1.4-2.3 1.8-5.1 1.1-7.7-1.4-5.4-7-8.7-12.4-7.3-1.9 0.5-3.7 0.7-5.6 0.6C37.3 75.5 35.3 75.1 33.2 74.3z" fill="#24a8df" data-fill-palette-color="accent"></path></svg></g></svg></g></svg></g><defs></defs></svg><rect width="395.52" height="156.85806333878313" fill="none" stroke="none" visibility="hidden"></rect></g></svg></g></svg>